<svg width="32" height="32" version="1.1" xmlns="http://www.w3.org/2000/svg" desc="Created with imagetracer.js version 1.2.6" ><path fill="rgb(253,245,229)" stroke="rgb(253,245,229)" stroke-width="1" opacity="1" d="M 10.5 7 L 13 7.5 L 10.5 8 L 10.5 7 Z " /><path fill="rgb(253,245,229)" stroke="rgb(253,245,229)" stroke-width="1" opacity="1" d="M 18.5 8 L 20 11 L 26 13.5 L 24.5 13 L 19.5 15 L 19.5 14 Q 21.8 14.8 21 12.5 Q 16.8 11.3 18.5 8 Z " /><path fill="rgb(253,245,229)" stroke="rgb(253,245,229)" stroke-width="1" opacity="1" d="M 6.5 9 L 7.5 11 L 6.5 9 Z " /><path fill="rgb(253,245,229)" stroke="rgb(253,245,229)" stroke-width="1" opacity="1" d="M 9.5 12 L 13 13.5 Q 12.3 15.8 8.5 15 L 9 13.5 L 9.5 12 Z " /><path fill="rgb(253,245,229)" stroke="rgb(253,245,229)" stroke-width="1" opacity="1" d="M 26.5 16 L 30 18.5 L 28 21.5 L 29.5 24 Q 26.9 23.2 28 26.5 L 27 26.5 L 26.5 16 Z " /><path fill="rgb(253,245,229)" stroke="rgb(253,245,229)" stroke-width="1" opacity="1" d="M 5.5 26 L 6.5 28 L 5.5 26 Z " /><path fill="rgb(254,246,230)" stroke="rgb(254,246,230)" stroke-width="1" opacity="1" d="M 10 0 L 15 0 Q 13.9 2.7 16.5 2 L 16.5 0 L 19.5 2 L 21 1.5 L 22 3.5 L 20 4.5 L 24.5 7 L 26 6.5 L 26 9 Q 28.7 7.9 28 10.5 L 29.5 10 L 32 10.5 L 32 27.5 Q 30.8 30.3 29.5 28 L 26 29.5 Q 28.3 30.8 25.5 32 L 23.5 31 L 19.5 31 L 16.5 32 L 14.5 32 L 9.5 31 L 6 32 L 3.5 28 L 1.5 29 Q -1.3 27.8 1 26.5 L 0 24.5 L 0 13.5 L 0 11.5 Q -0.8 9.3 1.5 10 L 1 8.5 L 2.5 6 L 4.5 7 L 8 6 L 7 3.5 L 10 3 L 10 0 Z M 18 3 Q 15 8 8 8 Q 4 10 9 13 L 5 22 Q 4 27 7 28 L 26 28 L 27 27 Q 29 28 28 24 L 30 24 L 28 22 L 30 19 L 29 18 Q 26 18 26 14 L 20 11 L 19 9 Q 20 2 18 3 Z " /><path fill="rgb(255,246,230)" stroke="rgb(255,246,230)" stroke-width="1" opacity="1" d="M 0 0 L 7.5 0 L 8.5 1 L 10 0.5 Q 11.3 4.3 7.5 3 L 8 4.5 Q 8.8 7.1 5.5 6 L 3.5 7 Q 2.3 4.8 1 7.5 L 2 9.5 L 0 10 L 0 0 Z " /><path fill="rgb(255,246,230)" stroke="rgb(255,246,230)" stroke-width="1" opacity="1" d="M 15.5 0 L 16.5 2 Q 13.7 2.7 15.5 0 Z " /><path fill="rgb(255,246,230)" stroke="rgb(255,246,230)" stroke-width="1" opacity="1" d="M 18.5 0 L 32 0 L 32 10 L 28.5 11 L 28 9 Q 25 10.3 26 6.5 L 24.5 7 L 20 4.5 L 22 3.5 L 20.5 1 Q 18.7 3.5 18.5 0 Z " /><path fill="rgb(255,246,230)" stroke="rgb(255,246,230)" stroke-width="1" opacity="1" d="M 0.5 28 L 2.5 29 Q 4.3 26.3 6 30.5 L 5.5 32 L 0 32 L 0.5 28 Z " /><path fill="rgb(255,246,230)" stroke="rgb(255,246,230)" stroke-width="1" opacity="1" d="M 28.5 28 L 30.5 29 L 32 28.5 Q 33.8 34.6 26.5 32 L 26.5 29 L 28.5 28 Z " /><path fill="rgb(255,246,230)" stroke="rgb(255,246,230)" stroke-width="1" opacity="1" d="M 17.5 31 L 20 31.5 L 17.5 32 L 17.5 31 Z " /><path fill="rgb(238,229,214)" stroke="rgb(238,229,214)" stroke-width="1" opacity="1" d="M 16.5 10 L 19 10.5 L 16.5 11 L 16.5 10 Z " /><path fill="rgb(238,229,214)" stroke="rgb(238,229,214)" stroke-width="1" opacity="1" d="M 5.5 23 L 6 25.5 L 5 25.5 L 5.5 23 Z " /><path fill="rgb(238,229,214)" stroke="rgb(238,229,214)" stroke-width="1" opacity="1" d="M 9.5 27 L 23 27.5 L 9.5 28 L 9.5 27 Z " /><path fill="rgb(205,187,159)" stroke="rgb(205,187,159)" stroke-width="1" opacity="1" d="M 15.5 4 L 14.5 6 L 15.5 4 Z " /><path fill="rgb(205,187,159)" stroke="rgb(205,187,159)" stroke-width="1" opacity="1" d="M 18.5 4 L 19 7.5 L 18 7.5 L 18.5 4 Z " /><path fill="rgb(205,187,159)" stroke="rgb(205,187,159)" stroke-width="1" opacity="1" d="M 13.5 7 L 14 9.5 L 12 8.5 L 13.5 7 Z " /><path fill="rgb(205,187,159)" stroke="rgb(205,187,159)" stroke-width="1" opacity="1" d="M 13.5 13 L 12.5 15 L 13.5 13 Z " /><path fill="rgb(205,187,159)" stroke="rgb(205,187,159)" stroke-width="1" opacity="1" d="M 14.5 17 L 18 18.5 L 15.5 20 L 13 18.5 L 14.5 17 Z " /><path fill="rgb(205,187,159)" stroke="rgb(205,187,159)" stroke-width="1" opacity="1" d="M 24.5 17 L 25.5 21 L 27 20.5 L 25.5 24 Q 23.1 21.3 24.5 17 Z " /><path fill="rgb(205,187,159)" stroke="rgb(205,187,159)" stroke-width="1" opacity="1" d="M 6.5 20 L 12 23.5 L 7 24 L 6.5 20 Z " /><path fill="rgb(205,187,159)" stroke="rgb(205,187,159)" stroke-width="1" opacity="1" d="M 22.5 22 L 23.5 24 L 21 23.5 L 22.5 22 Z " /><path fill="rgb(48,31,16)" stroke="rgb(48,31,16)" stroke-width="1" opacity="1" d="M 12.5 15 Q 18.6 14.3 21 16 L 21.5 18 L 23 17.5 L 21.5 20 L 20 19.5 L 20.5 18 L 14.5 17 L 12.5 15 Z " /><path fill="rgb(48,31,16)" stroke="rgb(48,31,16)" stroke-width="1" opacity="1" d="M 11.5 17 L 13 20 L 17.5 21 L 19 20.5 Q 19.5 23.5 12.5 22 L 9 19.5 Q 8.3 17.3 10.5 18 L 11.5 17 Z " /><path fill="rgb(68,49,29)" stroke="rgb(68,49,29)" stroke-width="1" opacity="1" d="M 11.5 15 L 14 16.5 L 10.5 18 L 9 17.5 L 11.5 15 Z " /><path fill="rgb(68,49,29)" stroke="rgb(68,49,29)" stroke-width="1" opacity="1" d="M 19.5 15 L 22 16.5 L 20.5 16 L 19.5 15 Z " /><path fill="rgb(68,49,29)" stroke="rgb(68,49,29)" stroke-width="1" opacity="1" d="M 8.5 19 L 9.5 21 L 8.5 19 Z " /><path fill="rgb(68,49,29)" stroke="rgb(68,49,29)" stroke-width="1" opacity="1" d="M 19.5 19 L 21.5 20 L 23 19.5 Q 23.8 21.8 21.5 21 L 19 22 L 19.5 19 Z " /><path fill="rgb(154,139,116)" stroke="rgb(154,139,116)" stroke-width="1" opacity="1" d="M 18.5 13 L 17.5 15 L 15 14.5 L 18.5 13 Z " /><path fill="rgb(154,139,116)" stroke="rgb(154,139,116)" stroke-width="1" opacity="1" d="M 8.5 16 L 7.5 18 L 8.5 16 Z " /><path fill="rgb(154,139,116)" stroke="rgb(154,139,116)" stroke-width="1" opacity="1" d="M 25.5 20 L 27 22.5 L 26 22.5 L 25.5 21 L 23.5 22 L 23.5 21 L 25.5 20 Z " /><path fill="rgb(141,109,73)" stroke="rgb(141,109,73)" stroke-width="1" opacity="1" d="M 7.5 9 L 8.5 11 L 7.5 9 Z " /><path fill="rgb(141,109,73)" stroke="rgb(141,109,73)" stroke-width="1" opacity="1" d="M 8.5 17 L 7.5 19 L 8.5 17 Z " /><path fill="rgb(141,109,73)" stroke="rgb(141,109,73)" stroke-width="1" opacity="1" d="M 6.5 25 L 23 25.5 L 6.5 26 L 6.5 25 Z " /><path fill="rgb(112,100,64)" stroke="rgb(112,100,64)" stroke-width="1" opacity="1" d="M 17.5 6 L 17.5 9 Q 15.3 9.8 16 7.5 L 17.5 6 Z " /><path fill="rgb(112,100,64)" stroke="rgb(112,100,64)" stroke-width="1" opacity="1" d="M 9 8 L 12 9.5 L 11.5 12 Q 6.9 13.2 9 8 Z " /><path fill="rgb(112,100,64)" stroke="rgb(112,100,64)" stroke-width="1" opacity="1" d="M 21.5 15 L 24 16.5 L 21.5 18 L 21.5 15 Z " /><path fill="rgb(112,100,64)" stroke="rgb(112,100,64)" stroke-width="1" opacity="1" d="M 12.5 22 Q 14.8 21.3 14 23.5 L 12.5 22 Z " /><path fill="rgb(112,100,64)" stroke="rgb(112,100,64)" stroke-width="1" opacity="1" d="M 26.5 23 L 27 25.5 L 26 25.5 L 26.5 23 Z " /><path fill="rgb(97,79,45)" stroke="rgb(97,79,45)" stroke-width="1" opacity="1" d="M 15.5 5 L 18 5.5 L 17.5 8 L 14 6.5 L 15.5 5 Z " /><path fill="rgb(97,79,45)" stroke="rgb(97,79,45)" stroke-width="1" opacity="1" d="M 14 8 L 17 9.5 L 16.5 11 L 20 12.5 L 16.5 14 L 14 9.5 L 14 8 Z " /><path fill="rgb(97,79,45)" stroke="rgb(97,79,45)" stroke-width="1" opacity="1" d="M 10.5 9 L 13 9.5 L 14 12.5 L 10.5 9 Z " /><path fill="rgb(97,79,45)" stroke="rgb(97,79,45)" stroke-width="1" opacity="1" d="M 23 14 L 25 14.5 L 23 15.5 L 23 14 Z " /><path fill="rgb(97,79,45)" stroke="rgb(97,79,45)" stroke-width="1" opacity="1" d="M 10.5 15 L 9.5 17 L 10.5 15 Z " /><path fill="rgb(97,79,45)" stroke="rgb(97,79,45)" stroke-width="1" opacity="1" d="M 19.5 18 L 21 18.5 L 18.5 20 L 19.5 18 Z " /><path fill="rgb(97,79,45)" stroke="rgb(97,79,45)" stroke-width="1" opacity="1" d="M 9.5 21 L 12 22.5 L 10.5 22 L 9.5 21 Z " /><path fill="rgb(97,79,45)" stroke="rgb(97,79,45)" stroke-width="1" opacity="1" d="M 21.5 21 L 23 21.5 L 19 23.5 L 22 24.5 L 7.5 25 L 7.5 24 L 13.5 24 L 14 22 L 15.5 22 L 17.5 22 L 21.5 21 Z " /><path fill="rgb(97,79,45)" stroke="rgb(97,79,45)" stroke-width="1" opacity="1" d="M 24.5 24 L 26 24.5 L 24 25.5 L 26 26.5 L 24.5 27 Q 21.5 25.5 24.5 24 Z " /><path fill="rgb(97,79,45)" stroke="rgb(97,79,45)" stroke-width="1" opacity="1" d="M 7.5 26 L 22 26.5 L 7.5 27 L 7.5 26 Z " /></svg>