<?xml version="1.0" encoding="UTF-8"?>
<!DOCTYPE svg PUBLIC "-//W3C//DTD SVG 1.1//EN" "http://www.w3.org/Graphics/SVG/1.1/DTD/svg11.dtd">
<svg xmlns="http://www.w3.org/2000/svg" version="1.1" width="32px" height="32px" style="shape-rendering:geometricPrecision; text-rendering:geometricPrecision; image-rendering:optimizeQuality; fill-rule:evenodd; clip-rule:evenodd" xmlns:xlink="http://www.w3.org/1999/xlink">
<g><path style="opacity:1" fill="#fbf2e2" d="M -0.5,-0.5 C 10.1667,-0.5 20.8333,-0.5 31.5,-0.5C 31.5,10.1667 31.5,20.8333 31.5,31.5C 20.8333,31.5 10.1667,31.5 -0.5,31.5C -0.5,20.8333 -0.5,10.1667 -0.5,-0.5 Z"/></g>
<g><path style="opacity:1" fill="#605f2d" d="M 15.5,10.5 C 13.8958,9.71304 13.2291,8.3797 13.5,6.5C 14.9785,3.19843 16.3118,3.03177 17.5,6C 17.4814,7.83302 16.8148,9.33302 15.5,10.5 Z"/></g>
<g><path style="opacity:1" fill="#797252" d="M 13.5,6.5 C 13.2291,8.3797 13.8958,9.71304 15.5,10.5C 16.9778,10.238 18.3112,10.5713 19.5,11.5C 18.1502,12.9501 16.4835,13.6168 14.5,13.5C 14.5,12.8333 14.1667,12.5 13.5,12.5C 4.44132,10.1404 4.44132,8.14044 13.5,6.5 Z"/></g>
<g><path style="opacity:1" fill="#3f2d1c" d="M 13.5,12.5 C 14.1667,12.5 14.5,12.8333 14.5,13.5C 17.5837,14.9934 20.5837,14.6601 23.5,12.5C 24.3857,13.325 24.719,14.325 24.5,15.5C 23.8333,16.1667 23.1667,16.8333 22.5,17.5C 22.4894,19.0174 21.8228,20.1841 20.5,21C 17.1667,21.6667 13.8333,21.6667 10.5,21C 8.31619,19.1024 7.98286,16.9358 9.5,14.5C 11.4832,14.8432 12.8166,14.1765 13.5,12.5 Z"/></g>
<g><path style="opacity:1" fill="#ccb48d" d="M 13.5,16.5 C 14.9778,16.238 16.3112,16.5713 17.5,17.5C 16.0813,19.9146 14.4146,20.0813 12.5,18C 13.056,17.6174 13.3893,17.1174 13.5,16.5 Z"/></g>
<g><path style="opacity:1" fill="#baa380" d="M 24.5,15.5 C 25.4511,16.9187 25.7845,18.5853 25.5,20.5C 25.5,21.5 25.5,22.5 25.5,23.5C 17.9322,23.5075 17.5989,22.8408 24.5,21.5C 24.0057,19.9745 23.339,18.6412 22.5,17.5C 23.1667,16.8333 23.8333,16.1667 24.5,15.5 Z"/></g>
<g><path style="opacity:1" fill="#6c5135" d="M 9.5,14.5 C 7.98286,16.9358 8.31619,19.1024 10.5,21C 13.8333,21.6667 17.1667,21.6667 20.5,21C 21.8228,20.1841 22.4894,19.0174 22.5,17.5C 23.339,18.6412 24.0057,19.9745 24.5,21.5C 17.5989,22.8408 17.9322,23.5075 25.5,23.5C 25.5,22.5 25.5,21.5 25.5,20.5C 26.4614,22.2646 26.7947,24.2646 26.5,26.5C 19.5,26.5 12.5,26.5 5.5,26.5C 5.19845,23.9407 5.53178,21.6074 6.5,19.5C 5.91618,16.715 6.91618,15.0483 9.5,14.5 Z"/></g>
<g><path style="opacity:1" fill="#cfb78f" d="M 6.5,19.5 C 8.01027,20.8361 9.67694,22.0027 11.5,23C 9.86586,23.4935 8.19919,23.6602 6.5,23.5C 6.5,22.1667 6.5,20.8333 6.5,19.5 Z"/></g>
</svg>
